<?xml version="1.0" encoding="utf-8"?>
<!-- Generator: Adobe Illustrator 16.0.0, SVG Export Plug-In . SVG Version: 6.00 Build 0)  -->
<!DOCTYPE svg PUBLIC "-//W3C//DTD SVG 1.1//EN" "http://www.w3.org/Graphics/SVG/1.1/DTD/svg11.dtd">
<svg version="1.1" id="Livello_1" xmlns="http://www.w3.org/2000/svg" xmlns:xlink="http://www.w3.org/1999/xlink" x="0px" y="0px"
	 width="48px" height="48px" viewBox="0 0 48 48" enable-background="new 0 0 48 48" xml:space="preserve">
<path fill="#1B9ECE" d="M22.889,33.662c0.027,0.018,0.057,0.029,0.084,0.045c0.085,0.051,0.169,0.102,0.26,0.139
	c0.038,0.016,0.079,0.023,0.118,0.037c0.084,0.028,0.167,0.061,0.255,0.077c0.13,0.026,0.262,0.04,0.396,0.04
	s0.267-0.014,0.396-0.04c0.081-0.017,0.157-0.046,0.235-0.071c0.047-0.016,0.094-0.023,0.139-0.043
	c0.08-0.033,0.154-0.078,0.229-0.123c0.037-0.021,0.078-0.037,0.114-0.062c0.095-0.063,0.182-0.14,0.264-0.218
	c0.012-0.01,0.025-0.019,0.037-0.029l5.998-6c0.779-0.781,0.779-2.047-0.001-2.829c-0.781-0.78-2.017-0.78-2.798,0.001l-2.553,2.584
	V16c0-1.105-0.896-2-2-2s-2,0.895-2,2v11.171l-2.617-2.585c-0.781-0.781-2.062-0.781-2.843,0c-0.391,0.391-0.594,0.902-0.594,1.414
	s0.191,1.023,0.582,1.414l5.997,5.999C22.68,33.506,22.779,33.589,22.889,33.662z"/>
<path fill="#1B9ECE" d="M41.559,24c0,9.682-7.877,17.559-17.561,17.559c-9.681,0-17.557-7.877-17.557-17.559
	c0-9.682,7.876-17.559,17.557-17.559C33.682,6.441,41.559,14.318,41.559,24 M45.559,24c0-11.907-9.651-21.559-21.561-21.559
	C12.092,2.441,2.441,12.093,2.441,24c0,11.906,9.65,21.559,21.557,21.559C35.906,45.559,45.559,35.906,45.559,24L45.559,24z"/>
</svg>
