<?xml version="1.0" encoding="utf-8"?>
<!-- Generator: Adobe Illustrator 16.0.0, SVG Export Plug-In . SVG Version: 6.00 Build 0)  -->
<!DOCTYPE svg PUBLIC "-//W3C//DTD SVG 1.1//EN" "http://www.w3.org/Graphics/SVG/1.1/DTD/svg11.dtd">
<svg version="1.1" id="Livello_1" xmlns="http://www.w3.org/2000/svg" xmlns:xlink="http://www.w3.org/1999/xlink" x="0px" y="0px"
	 width="512px" height="512px" viewBox="0 0 512 512" enable-background="new 0 0 512 512" xml:space="preserve">
<g>
	<polygon points="400.07,368.054 400.07,368.054 400.07,368.038 	"/>
	<path d="M432.054,255.875c-0.035-0.51,0.05-0.968,0.034-1.478c0,0-0.237-2.665-0.629-7.622c-0.323-2.801-0.221-4.923-1.001-9.846
		c-0.815-4.719-1.766-10.169-2.836-16.28c-2.835-10.984-6.688-24.259-13.886-38.248c-6.723-14.176-16.858-28.894-30.048-42.713
		c-13.174-13.784-29.76-26.534-49.334-35.99c-19.505-9.489-41.932-15.583-65.29-16.67c-6.128,0-11.086-0.645-18.233,0.05
		c-5.432,0.594-9.337,0.442-16.246,1.766c-12.987,2.037-24.328,5.042-35.65,9.642c-22.562,8.879-43.29,22.868-59.977,40.506
		c-16.552,17.774-29.013,39.062-36.279,61.505c-7.351,22.273-9.354,46.362-6.944,67.463c4.788,45.312,28.521,81.436,55.004,103.505
		c13.241,11.12,26.89,19.354,39.843,24.515c12.766,5.602,24.666,8.216,34.377,10.134c9.846,1.258,17.553,2.106,22.867,1.901
		c5.263,0.069,8.081,0.103,8.081,0.103c4.126,0.033,7.69-3.124,8.08-7.316c0.374-4.398-2.886-8.268-7.3-8.658l-0.832-0.053
		c0,0-2.512-0.219-7.215-0.627c-4.736-0.118-11.543-1.409-20.116-3.071c-8.437-2.344-18.658-5.313-29.369-10.985
		c-10.882-5.228-22.086-13.189-32.646-23.41c-10.542-10.236-20.219-23.105-27.314-38.111c-7.147-15.007-11.561-32.256-12.24-49.555
		c-0.798-18.725,2.241-36.55,9.201-53.781c6.91-17.044,17.673-32.662,31.135-45.225c13.615-12.393,29.811-21.628,46.736-26.925
		c8.335-2.817,17.503-4.312,24.854-4.991c3.225-0.713,9.608-0.373,14.294-0.543c3.021-0.238,8.115,0.679,11.968,0.883
		c33.323,3.904,60.418,21.934,76.547,41.863c8.165,9.949,14.242,20.134,17.892,29.793c4.075,9.49,5.823,18.318,7.232,25.481
		c0.221,3.157,0.543,5.942,0.866,8.353c0.39,2.275,0.169,6.35,0.306,8.523c0.016,2.851,0.033,4.82,0.05,6.111h-48.11l80.146,112.163
		l80.162-112.163H432.054z"/>
</g>
</svg>
