<?xml version="1.0" encoding="utf-8"?>
<!-- Generator: Adobe Illustrator 16.0.0, SVG Export Plug-In . SVG Version: 6.00 Build 0)  -->
<!DOCTYPE svg PUBLIC "-//W3C//DTD SVG 1.1//EN" "http://www.w3.org/Graphics/SVG/1.1/DTD/svg11.dtd">
<svg version="1.1" id="Livello_1" xmlns="http://www.w3.org/2000/svg" xmlns:xlink="http://www.w3.org/1999/xlink" x="0px" y="0px"
	 width="100px" height="100px" viewBox="0 0 100 100" enable-background="new 0 0 100 100" xml:space="preserve">
<g>
	<path fill="#FFFFFF" d="M50,0C22.386,0,0,22.386,0,50s22.386,50,50,50s50-22.386,50-50S77.614,0,50,0z M50,94.878
		C25.214,94.878,5.122,74.786,5.122,50C5.122,25.214,25.214,5.122,50,5.122c24.786,0,44.878,20.093,44.878,44.878
		C94.878,74.786,74.786,94.878,50,94.878z"/>
	<path fill="#FFFFFF" d="M50,15.127C30.74,15.127,15.127,30.74,15.127,50S30.74,84.873,50,84.873S84.873,69.26,84.873,50
		S69.26,15.127,50,15.127z M60.065,42l-0.523,7H53v24h-9V49h-5v-7h5v-1.856v-2.095v-0.35c0-2.017-0.091-5.133,1.375-7.063
		c1.546-2.043,3.595-3.431,7.245-3.431c5.945,0,8.416,0.847,8.416,0.847l-1.197,6.984c0,0-1.747-0.567-3.581-0.567
		c-1.833,0-3.258,0.655-3.258,2.488v0.742v2.445V42H60.065z"/>
</g>
<path fill="#FFFFFF" d="M281.031,379.641h27v-12.25v-12v-2c0-11.551,0.298-29.4,8.698-40.449c8.85-11.702,21-19.65,41.901-19.65
	c34.048,0,48.4,4.849,48.4,4.849l-6.75,40.001c0,0-11.25-3.251-21.75-3.251s-19.9,3.75-19.9,14.25v4.251v14v12.25h43.048l-3,39.049
	h-40.048v135.701h-50.6V418.689h-27V379.641L281.031,379.641z"/>
</svg>
