<?xml version="1.0" encoding="utf-8"?>
<!-- Generator: Adobe Illustrator 16.0.0, SVG Export Plug-In . SVG Version: 6.00 Build 0)  -->
<!DOCTYPE svg PUBLIC "-//W3C//DTD SVG 1.1//EN" "http://www.w3.org/Graphics/SVG/1.1/DTD/svg11.dtd">
<svg version="1.1" id="Livello_1" xmlns="http://www.w3.org/2000/svg" xmlns:xlink="http://www.w3.org/1999/xlink" x="0px" y="0px"
	 width="400px" height="500px" viewBox="0 0 400 500" enable-background="new 0 0 400 500" xml:space="preserve">
<path opacity="0.15" fill="#333333" d="M18,475V51.242C18,38.797,29.855,33,42.298,33h315.401C370.146,33,382,38.797,382,51.242V475
	H18z"/>
<g>
	<path fill="#FFFFFF" d="M161.449,361.022c0-10.599-8.261-15.908-15.98-15.908c-7.522,0-15.714,5.31-15.714,15.908
		c0,10.537,8.191,15.913,15.714,15.913C153.188,376.936,161.449,371.56,161.449,361.022z"/>
	<path fill="#FFFFFF" d="M101.042,410H88v19h13.042c5.081,0,9.104-4.527,9.104-9.236C110.146,414.449,106.123,410,101.042,410z"/>
	<path fill="#FFFFFF" d="M158.072,148.465c0,9.872,7.666,14.902,14.701,14.902c7.237,0,14.963-5.031,14.963-14.902
		c0-9.915-7.726-14.886-14.963-14.886C165.738,133.58,158.072,138.55,158.072,148.465z"/>
	<path fill="#FFFFFF" d="M205,411h-15v16h15C215,427,216,411,205,411z"/>
	<polygon fill="#FFFFFF" points="137.927,435 155.844,435 147.271,416.25 	"/>
	<path fill="#FFFFFF" d="M248,135h-12v13h12C256,148,256,135,248,135z"/>
	<path fill="#FFFFFF" d="M161,65h-16v17h16C171,82,172,65,161,65z"/>
	<path fill="#FFFFFF" d="M372.043,8H27.957C14.382,8,3,19.229,3,32.802V500h394V32.802C397,19.229,385.618,8,372.043,8z M317,145
		c6,0,6,8,0,8h-15v9h19c5,0,6,8,0,8h-23.875c-2.204,0-4.125-1.225-4.125-3.43v-35.686c0-2.266,1.921-3.884,4.125-3.884H320
		c5,0,5,8,0,8h-18v10H317z M303.346,53.609c6.543,0,13.733,2.234,18.855,7.289c5.045,4.954-2.231,12.313-7.19,7.925
		c-3.063-2.971-7.359-5.208-11.665-5.208c-10.004,0-19.677,8.019-19.677,19.674c0,12.243,8.099,19.691,18.927,19.691
		c5.051,0,9.404-1.495,12.404-3.73V89h-12c-8,0-7-10,0-10h16.148c3.053,0,5.852,2.309,5.852,4.877v17.608
		c0,1.495-0.656,2.892-2.057,4.469c-5.871,4.882-13.059,6.953-20.346,6.953c-17.362,0-29.688-9.927-29.688-29.618
		C272.91,66.589,285.901,53.609,303.346,53.609z M261.967,163.86c3.26,4.846-3.264,9.499-7.042,4.722L245.439,155H236v11.387
		c0,5.46-9,5.645-9,0.115v-35.688c0-2.196,1.922-3.814,3.981-3.814h16.715c15.961,0,19.234,21.349,5.913,26.693L261.967,163.86z
		 M213,60.898c0-2.983,0.854-5.883,5.155-5.883c2.977,0,3.935,0.737,6.173,2.899L252,92.143V60.058c0-2.72,2.354-5.701,5.171-5.701
		c2.972,0,5.829,2.981,5.829,5.701v46.551c0,3.651-2.4,5.057-4.551,5.712c-2.891,0-4.492-0.655-6.888-2.892L224,74.696v31.913
		c0,3.651-2.32,5.712-5.295,5.712c-2.977,0-5.705-2.062-5.705-5.712V60.898z M190,60c0-7,11-7,11,0v47c0,7-11,7-11,0V60z
		 M195.963,148.465c0,14.902-11.499,22.622-22.489,22.622c-11.639,0.506-23.689-7.227-23.689-22.622
		c0-15.447,12.051-23.051,23.689-23.051C184.464,125.976,195.963,133.58,195.963,148.465z M134,60.137
		c0-2.89,1.909-5.137,4.638-5.137h21.995c21.003,0,25.31,28.155,7.776,35.19l11.005,13.412c4.293,6.38-4.309,12.531-9.267,6.245
		L157.656,92H145v14.955c0,7.186-11,7.428-11,0.151V60.137z M74,107.197V60.231C74,57.248,76.128,55,79.104,55h23.243
		c10.83,0,16.698,7.401,16.698,15.843c0,3.729-1.071,7.375-4.542,10.44c6.529,2.568,9.426,7.463,9.426,13.588
		c0,9.502-6.454,17.129-18.856,17.129H79.104C76.128,112,74,110.099,74,107.197z M76,166.125v-35.374
		c0-3.271,2.756-4.332,3.754-4.332c1.822,0,2.892,1.061,3.951,2.266l13.825,18.659l14.33-19.357c2.074-2.573,7.14-1.567,7.14,2.765
		v35.374c0,2.772-1.852,4.339-3.866,4.339c-2.266,0-4.134-1.567-4.134-4.339v-23.243l-10.313,13.196
		c-2.266,2.765-5.172,2.765-7.246,0L84,142.882v23.243c0,2.772-2.115,4.339-4.38,4.339C77.615,170.465,76,168.898,76,166.125z
		 M83,346c-6,0-6-8,0-8h31c6,0,6,8,0,8h-11v34c0,6-9,6-9,0v-34H83z M101.042,439H88v9.835c0,3.346-2.117,5.242-4.844,5.242
		c-2.514,0-5.156-1.896-5.156-5.242v-42.728c0-2.511,2.309-5.107,5.501-5.107h17.54c9.862,0,18.748,6.625,18.748,19.298
		C119.789,432.299,110.904,439,101.042,439z M164.576,451.588L161.237,445h-28.012l-3.273,6.588c-1.21,2.578-4.025,3.066-6.75,2.533
		c-2.436-1.363-3.953-4.116-2.436-7.309l21.796-42.601c2.05-4.022,7.51-4.181,9.411-0.005l21.409,42.63
		C176.495,452.761,167.31,457.512,164.576,451.588z M120.903,361.022c0-16.508,12.884-24.635,25.305-24.635
		c11.749,0.604,24.033,8.727,24.033,24.635c0,15.913-12.284,24.17-24.033,24.17C133.787,385.726,120.903,377.464,120.903,361.022z
		 M213.768,451.605L202.309,435H190v14.151c0,6.605-10,6.831-10,0.145V406.18c0-2.655,2.335-4.18,4.843-4.18h20.192
		c19.278,0,23.229,25.582,7.134,32.043l10.104,12.074C226.215,451.969,218.323,457.369,213.768,451.605z M199,346c-6,0-6-8,0-8h32
		c6,0,6,8,0,8h-11v34c0,6-9,6-9,0v-34H199z M268,411h-12v38c0,7-10,7-10,0v-38h-13c-7,0-7-10,0-10h35C275,401,275,411,268,411z
		 M272,380.358V366h-22v14.358c0,2.348-1.318,4.157-3.666,4.157c-3.016,0-4.334-1.81-4.334-4.157v-38.134
		c0-2.409,1.318-4.161,4.334-4.161c2.348,0,3.666,1.752,3.666,4.161V357h22v-14.775c0-2.409,2.292-4.161,4.707-4.161
		c2.352,0,4.293,1.752,4.293,4.161v38.134c0,2.348-1.941,4.157-4.293,4.157C274.292,384.516,272,382.706,272,380.358z
		 M324.563,408.378L307,433.661v15.635c0,6.605-10,6.605-10,0v-15.635l-17.447-24.976c-4.094-5.089,4.383-10.936,8.404-5.396
		l13.908,20.804l14.28-20.804C320.168,397.75,328.515,403.29,324.563,408.378z M316,357c6,0,6,9,0,9h-17v10h21c6,0,6,9,0,9h-25.525
		c-2.347,0-4.475-2.294-4.475-4.642v-38.134c0-2.409,2.128-4.225,4.475-4.225H319c6,0,6,9,0,9h-20v10H316z M318.99,215.542
		c-3.212,3.763-11.252,10.063-10.139,16.196c1.147,6.252,9.74,39.447-2.755,58.902c-12.495,19.47-48.1,28.543-88.287,27.458
		c-40.193-1.09-115.395,0.081-134.111-22.533c-9.087-10.973-7.834-37.219,4.987-75.657c12.833-38.438,47.677-43.469,89.977-28.984
		c42.31,14.478,65.514,44.232,73.003,52.801c14.214,16.27,37.288,16.16,44.643,9.193c7.35-6.971,2.218-26.618-4.618-29.765
		c-6.831-3.146-24.774-12.728-21.89-28.034c3.317-7.729,23.08,8.071,29.671,12.564c5.267-0.864,14.099-14.079,24.761-9.963
		C328.384,199.32,324.304,209.343,318.99,215.542z"/>
	<path fill="#FFFFFF" d="M108.129,71.049c0-2.72-2.23-6.049-5.782-6.049H85v13h17.347C105.899,78,108.129,75.427,108.129,71.049z"/>
	<path fill="#FFFFFF" d="M194.796,265.492c-2.563-0.308-5.144,3.604-5.753,8.731c-0.617,5.127,0.967,9.523,3.535,9.831
		c2.561,0.316,5.134-3.601,5.749-8.722C198.939,270.206,197.36,265.799,194.796,265.492z"/>
	<path fill="#FFFFFF" d="M105,88c-6,0-14,0-20,0v14h20C115,102,115,88,105,88z"/>
</g>
</svg>
