<?xml version="1.0" encoding="utf-8"?>
<!-- Generator: Adobe Illustrator 16.0.0, SVG Export Plug-In . SVG Version: 6.00 Build 0)  -->
<!DOCTYPE svg PUBLIC "-//W3C//DTD SVG 1.0//EN" "http://www.w3.org/TR/2001/REC-SVG-20010904/DTD/svg10.dtd">
<svg version="1.0" id="Livello_1" xmlns="http://www.w3.org/2000/svg" xmlns:xlink="http://www.w3.org/1999/xlink" x="0px" y="0px"
	 width="100px" height="100px" viewBox="0 0 100 100" enable-background="new 0 0 100 100" xml:space="preserve">
<circle opacity="0.1" cx="50" cy="50" r="37.5"/>
<g>
	<path fill="#FFFFFF" d="M50,10c-22.091,0-40,17.909-40,40s17.909,40,40,40s40-17.909,40-40S72.091,10,50,10z M60.064,42l-0.522,7
		H53v24h-9V49h-5v-7h5v-1.856v-2.095v-0.35c0-2.017-0.091-5.133,1.375-7.063c1.546-2.043,3.595-3.431,7.245-3.431
		c5.944,0,8.416,0.847,8.416,0.847l-1.197,6.984c0,0-1.747-0.567-3.581-0.567c-1.833,0-3.258,0.655-3.258,2.488v0.742v2.445V42
		H60.064z"/>
</g>
<path fill="#FFFFFF" d="M281.031,379.641h27v-12.25v-12v-2c0-11.551,0.298-29.397,8.695-40.449
	c8.853-11.699,21-19.647,41.901-19.647c34.048,0,48.4,4.851,48.4,4.851l-6.75,40.002c0,0-11.25-3.252-21.75-3.252
	s-19.9,3.75-19.9,14.25v4.252v14v12.25h43.048l-3,39.049H358.63v135.698h-50.6V418.689h-27.001v-39.049H281.031L281.031,379.641z"/>
</svg>
