<?xml version="1.0" encoding="utf-8"?>
<!-- Generator: Adobe Illustrator 16.0.0, SVG Export Plug-In . SVG Version: 6.00 Build 0)  -->
<!DOCTYPE svg PUBLIC "-//W3C//DTD SVG 1.0//EN" "http://www.w3.org/TR/2001/REC-SVG-20010904/DTD/svg10.dtd">
<svg version="1.0" id="Livello_1" xmlns="http://www.w3.org/2000/svg" xmlns:xlink="http://www.w3.org/1999/xlink" x="0px" y="0px"
	 width="100px" height="100px" viewBox="0 0 100 100" enable-background="new 0 0 100 100" xml:space="preserve">
<circle opacity="0.1" cx="50" cy="50" r="37"/>
<g>
	<path fill="#FFFFFF" d="M50,10c-22.091,0-40,17.909-40,40s17.909,40,40,40s40-17.909,40-40S72.091,10,50,10z M66.38,41.599
		c0.017,0.363,0.024,0.727,0.024,1.094c0,11.17-8.502,24.048-24.047,24.048c-4.774,0-9.216-1.4-12.957-3.796
		c0.662,0.076,1.334,0.117,2.017,0.117c3.959,0,7.604-1.354,10.497-3.619c-3.699-0.068-6.821-2.512-7.896-5.869
		c0.517,0.098,1.046,0.15,1.59,0.15c0.772,0,1.518-0.104,2.227-0.295c-3.865-0.777-6.78-4.198-6.78-8.292
		c0-0.036,0-0.071,0.001-0.106c1.14,0.633,2.444,1.013,3.829,1.057c-2.268-1.515-3.76-4.103-3.76-7.035
		c0-1.549,0.417-3.001,1.145-4.249c4.168,5.113,10.396,8.478,17.421,8.831c-0.144-0.618-0.219-1.264-0.219-1.926
		c0-4.667,3.784-8.452,8.452-8.452c2.432,0,4.628,1.026,6.172,2.669c1.922-0.379,3.731-1.082,5.365-2.051
		c-0.631,1.973-1.973,3.63-3.716,4.676c1.71-0.205,3.338-0.659,4.854-1.331C69.466,38.918,68.032,40.406,66.38,41.599z"/>
</g>
</svg>
