<?xml version="1.0" encoding="utf-8"?>
<!-- Generator: Adobe Illustrator 16.0.0, SVG Export Plug-In . SVG Version: 6.00 Build 0)  -->
<!DOCTYPE svg PUBLIC "-//W3C//DTD SVG 1.1//EN" "http://www.w3.org/Graphics/SVG/1.1/DTD/svg11.dtd">
<svg version="1.1" id="Livello_1" xmlns="http://www.w3.org/2000/svg" xmlns:xlink="http://www.w3.org/1999/xlink" x="0px" y="0px"
	 width="300px" height="60px" viewBox="0 0 300 60" enable-background="new 0 0 300 60" xml:space="preserve">
<path opacity="0.1" fill="#333333" d="M295,0H5C2.239,0,0,2.239,0,5v55h300V5C300,2.239,297.762,0,295,0z"/>
<g>
	<path fill="#FFFFFF" d="M237.203,29.825h-2.284v3.404h2.284c0.916,0,1.641-0.807,1.641-1.654
		C238.844,30.618,238.119,29.825,237.203,29.825z"/>
	<path fill="#FFFFFF" d="M28.015,30.837c0-0.451-0.369-0.943-0.957-0.943h-2.886v2.037h2.886
		C27.646,31.931,28.015,31.562,28.015,30.837z"/>
	<path fill="#FFFFFF" d="M191.176,29.661c-1.532,0-3.201,1.081-3.201,3.24c0,2.147,1.669,3.242,3.201,3.242
		c1.572,0,3.255-1.095,3.255-3.242C194.431,30.742,192.748,29.661,191.176,29.661z"/>
	<path fill="#FFFFFF" d="M96.974,29.88h-2.639v2.871h2.639C98.752,32.751,98.861,29.88,96.974,29.88z"/>
	
		<ellipse transform="matrix(0.1186 -0.9929 0.9929 0.1186 91.7827 173.1439)" fill="#FFFFFF" cx="143.419" cy="34.873" rx="1.902" ry="0.951"/>
	<path fill="#FFFFFF" d="M27.509,33.599c-1.04,0-2.257,0-3.337,0v2.422h3.337C29.095,36.021,29.095,33.599,27.509,33.599z"/>
	<path fill="#FFFFFF" d="M85.802,29.661c-1.532,0-3.201,1.081-3.201,3.24c0,2.147,1.668,3.242,3.201,3.242
		c1.573,0,3.255-1.095,3.255-3.242C89.057,30.742,87.375,29.661,85.802,29.661z"/>
	<path fill="#FFFFFF" d="M36.698,29.88h-2.64v2.871h2.64C38.476,32.751,38.585,29.88,36.698,29.88z"/>
	<polygon fill="#FFFFFF" points="243.849,34.215 247.075,34.215 245.53,30.837 	"/>
	<path fill="#FFFFFF" d="M255.937,29.88h-2.64v2.871h2.64C257.714,32.751,257.824,29.88,255.937,29.88z"/>
	<path fill="#FFFFFF" d="M295,0H5C2.239,0,0,2.239,0,5v55h300V5C300,2.239,297.762,0,295,0z M27.509,37.688h-4.294
		c-0.492,0-0.834-0.369-0.834-0.848v-7.768c0-0.492,0.342-0.848,0.834-0.848h3.843c1.791,0,2.762,1.217,2.762,2.612
		c0,0.616-0.178,1.216-0.752,1.722c1.08,0.425,1.559,1.259,1.559,2.271C30.627,36.402,29.561,37.688,27.509,37.688z M38.271,37.278
		l-2.065-2.954h-2.147V36.8c0,1.189-1.819,1.23-1.819,0.027v-7.768c0-0.479,0.369-0.834,0.821-0.834h3.638
		c3.473,0,4.185,4.649,1.285,5.812l1.819,2.215C40.514,37.306,39.091,38.317,38.271,37.278z M43.384,36.854
		c0,1.135-1.805,1.162-1.805,0v-7.809c0-1.121,1.805-1.162,1.805,0V36.854z M53.572,36.744c0,0.603-0.37,0.835-0.725,0.944
		c-0.479,0-0.711-0.109-1.107-0.479l-4.527-5.743v5.277c0,0.603-0.369,0.944-0.861,0.944c-0.492,0-0.93-0.342-0.93-0.944v-7.561
		c0-0.493,0.109-0.972,0.821-0.972c0.492,0,0.602,0.123,0.97,0.479l4.527,5.662v-5.306c0-0.451,0.396-0.943,0.861-0.943
		c0.492,0,0.971,0.492,0.971,0.943V36.744z M63.883,35.896c0,0.247-0.109,0.479-0.342,0.739c-0.971,0.807-2.161,1.148-3.365,1.148
		c-2.872,0-4.91-1.641-4.91-4.896c0-2.762,2.147-4.909,5.033-4.909c1.081,0,2.27,0.37,3.118,1.205
		c0.834,0.82-0.369,2.037-1.189,1.312c-0.506-0.492-1.217-0.861-1.928-0.861c-1.655,0-3.255,1.326-3.255,3.254
		c0,2.024,1.34,3.256,3.131,3.256c0.834,0,1.546-0.247,2.052-0.616v-1.682h-2.052c-1.217,0-1.094-1.669,0-1.669h2.735
		c0.506,0,0.971,0.383,0.971,0.808V35.896z M79.239,36.744c0,0.603-0.383,0.944-0.821,0.944c-0.492,0-0.875-0.342-0.875-0.944v-5.06
		l-2.27,2.872c-0.492,0.602-1.107,0.602-1.559,0l-2.038-2.872v5.06c0,0.603-0.492,0.944-0.984,0.944
		c-0.438,0-0.821-0.342-0.821-0.944v-7.699c0-0.711,0.602-0.943,0.821-0.943c0.396,0,0.629,0.232,0.861,0.492l3.009,4.062
		l3.118-4.212c0.451-0.561,1.559-0.342,1.559,0.601V36.744z M85.953,37.825c-2.53,0.109-5.156-1.573-5.156-4.924
		c0-3.363,2.625-5.018,5.156-5.018c2.393,0.123,4.896,1.778,4.896,5.018C90.848,36.144,88.346,37.825,85.953,37.825z M98.546,37.278
		l-2.065-2.954h-2.147V36.8c0,1.189-1.819,1.23-1.819,0.027v-7.768c0-0.479,0.369-0.834,0.821-0.834h3.637
		c3.474,0,4.185,4.649,1.286,5.812l1.819,2.215C100.79,37.306,99.367,38.317,98.546,37.278z M107.736,37.688h-5.142
		c-0.479,0-0.848-0.369-0.848-0.848v-7.768c0-0.492,0.369-0.848,0.848-0.848h4.909c1.258,0,1.231,1.778,0,1.778h-3.938v2.05h3.446
		c1.217,0,1.217,1.792,0,1.792h-3.446v2.051h4.171C108.98,35.896,109.076,37.688,107.736,37.688z M168.91,22.823
		c-0.653,0.766-2.289,2.047-2.063,3.295c0.233,1.272,1.981,8.024-0.561,11.983c-2.542,3.96-9.785,5.806-17.961,5.585
		c-8.177-0.222-23.476,0.017-27.283-4.583c-1.849-2.233-1.594-7.572,1.015-15.392c2.611-7.82,9.699-8.843,18.305-5.896
		c8.607,2.945,13.328,8.999,14.852,10.742c2.892,3.31,7.586,3.287,9.082,1.87c1.495-1.418,0.451-5.415-0.939-6.055
		c-1.39-0.64-5.04-2.589-4.453-5.703c0.675-1.572,4.695,1.642,6.036,2.556c1.071-0.176,2.868-2.864,5.037-2.027
		C170.821,19.523,169.991,21.562,168.91,22.823z M184.83,29.935h-2.27v6.906c0,1.189-1.805,1.217-1.805,0v-6.906h-2.394
		c-1.19,0-1.19-1.75,0-1.75h6.468C186.048,28.184,186.048,29.935,184.83,29.935z M191.326,37.825
		c-2.53,0.109-5.155-1.573-5.155-4.924c0-3.363,2.625-5.018,5.155-5.018c2.394,0.123,4.896,1.778,4.896,5.018
		C196.222,36.144,193.72,37.825,191.326,37.825z M208.528,29.935h-2.271v6.906c0,1.189-1.805,1.217-1.805,0v-6.906h-2.394
		c-1.189,0-1.189-1.75,0-1.75h6.469C209.745,28.184,209.745,29.935,208.528,29.935z M218.798,36.841
		c0,0.479-0.369,0.848-0.848,0.848c-0.493,0-0.931-0.369-0.931-0.848v-2.995h-4.459v2.995c0,0.479-0.355,0.848-0.834,0.848
		c-0.614,0-0.97-0.369-0.97-0.848v-7.768c0-0.492,0.355-0.848,0.97-0.848c0.479,0,0.834,0.355,0.834,0.848v2.981h4.459v-2.981
		c0-0.492,0.438-0.848,0.931-0.848c0.479,0,0.848,0.355,0.848,0.848V36.841z M226.674,37.688h-5.143
		c-0.478,0-0.848-0.369-0.848-0.848v-7.768c0-0.492,0.37-0.848,0.848-0.848h4.91c1.258,0,1.23,1.778,0,1.778h-3.939v2.05h3.447
		c1.217,0,1.217,1.792,0,1.792h-3.447v2.051h4.172C227.919,35.896,228.014,37.688,226.674,37.688z M237.203,34.939h-2.284v1.805
		c0,0.603-0.383,0.944-0.875,0.944c-0.452,0-0.931-0.342-0.931-0.944v-7.699c0-0.451,0.355-0.943,0.931-0.943h3.159
		c1.777,0,3.378,1.189,3.378,3.473C240.581,33.736,238.98,34.939,237.203,34.939z M248.648,37.224l-0.602-1.203h-5.046l-0.589,1.203
		c-0.219,0.465-0.725,0.561-1.217,0.465c-0.438-0.246-0.711-0.738-0.438-1.313l3.926-7.671c0.369-0.725,1.354-0.751,1.695,0
		l3.856,7.671C250.796,37.442,249.141,38.291,248.648,37.224z M257.509,37.278l-2.064-2.954h-2.147V36.8
		c0,1.189-1.818,1.23-1.818,0.027v-7.768c0-0.479,0.369-0.834,0.82-0.834h3.638c3.473,0,4.185,4.649,1.285,5.812l1.819,2.215
		C259.752,37.306,258.33,38.317,257.509,37.278z M267.368,29.935h-2.27v6.906c0,1.189-1.806,1.217-1.806,0v-6.906h-2.394
		c-1.189,0-1.189-1.75,0-1.75h6.469C268.586,28.184,268.586,29.935,267.368,29.935z M277.433,29.456l-3.199,4.554v2.817
		c0.122,1.189-1.806,1.189-1.806,0V34.01l-3.104-4.499c-0.738-0.917,0.807-1.97,1.531-0.972l2.516,3.748l2.559-3.748
		C276.653,27.542,278.144,28.54,277.433,29.456z"/>
</g>
</svg>
