<?xml version="1.0" encoding="utf-8"?>
<!-- Generator: Adobe Illustrator 16.0.0, SVG Export Plug-In . SVG Version: 6.00 Build 0)  -->
<!DOCTYPE svg PUBLIC "-//W3C//DTD SVG 1.1//EN" "http://www.w3.org/Graphics/SVG/1.1/DTD/svg11.dtd">
<svg version="1.1" id="Livello_1" xmlns="http://www.w3.org/2000/svg" xmlns:xlink="http://www.w3.org/1999/xlink" x="0px" y="0px"
	 width="198.5px" height="150px" viewBox="0 0 198.5 150" enable-background="new 0 0 198.5 150" xml:space="preserve">
<g>
	<path fill="#FFFFFF" d="M162.893,25.689c-5.547-2.14-10.141,4.734-12.879,5.183c-3.426-2.337-13.707-10.556-15.431-6.535
		c-1.502,7.96,7.828,12.944,11.382,14.581c3.557,1.636,6.227,11.856,2.403,15.48c-3.824,3.626-15.828,3.683-23.22-4.781
		c-3.893-4.456-15.965-19.932-37.97-27.464C65.177,14.62,47.053,17.236,40.38,37.23c-6.671,19.992-7.322,33.644-2.596,39.354
		c9.735,11.76,48.851,11.15,69.754,11.717c20.903,0.563,39.421-4.154,45.92-14.279c6.5-10.122,2.03-27.386,1.437-30.638
		c-0.582-3.19,3.598-6.467,5.271-8.425C162.932,31.734,165.05,26.521,162.893,25.689z M92.578,65.479
		c0.318-2.667,1.658-4.7,2.992-4.541c1.333,0.16,2.155,2.452,1.836,5.119c-0.318,2.668-1.658,4.702-2.99,4.541
		C93.081,70.438,92.257,68.146,92.578,65.479z"/>
	
		<text transform="matrix(1 0 0 1 30.3018 125.3818)" fill="#FFFFFF" font-family="'Multicolore'" font-size="32.7084" letter-spacing="2">whale</text>
</g>
</svg>
