<?xml version="1.0" encoding="utf-8"?>
<!-- Generator: Adobe Illustrator 16.0.0, SVG Export Plug-In . SVG Version: 6.00 Build 0)  -->
<!DOCTYPE svg PUBLIC "-//W3C//DTD SVG 1.1//EN" "http://www.w3.org/Graphics/SVG/1.1/DTD/svg11.dtd">
<svg version="1.1" id="Livello_1" xmlns="http://www.w3.org/2000/svg" xmlns:xlink="http://www.w3.org/1999/xlink" x="0px" y="0px"
	 width="198.5px" height="150px" viewBox="0 0 198.5 150" enable-background="new 0 0 198.5 150" xml:space="preserve">
<g>
	<path fill="#FFFFFF" d="M162.893,25.689c-5.547-2.14-10.141,4.734-12.879,5.183c-3.426-2.337-13.707-10.556-15.431-6.535
		c-1.502,7.96,7.828,12.944,11.382,14.581c3.557,1.636,6.227,11.856,2.403,15.48c-3.824,3.626-15.828,3.683-23.22-4.781
		c-3.894-4.456-15.965-19.932-37.97-27.464C65.177,14.62,47.053,17.236,40.38,37.23c-6.671,19.992-7.322,33.644-2.596,39.354
		c9.735,11.76,48.851,11.15,69.754,11.717c20.903,0.563,39.421-4.154,45.92-14.279c6.5-10.122,2.03-27.386,1.437-30.638
		c-0.582-3.19,3.599-6.467,5.271-8.425C162.932,31.734,165.05,26.521,162.893,25.689z M92.578,65.479
		c0.318-2.667,1.658-4.7,2.992-4.541c1.333,0.16,2.155,2.452,1.836,5.119c-0.318,2.668-1.658,4.702-2.99,4.541
		C93.081,70.438,92.257,68.146,92.578,65.479z"/>
	<g enable-background="new    ">
		<path fill="#FFFFFF" d="M55.46,117.563l4.874-13.479c0.981-2.649,4.94-1.406,3.958,1.439l-6.477,17.568
			c-0.59,1.864-1.146,2.421-2.258,2.421c-1.178,0-1.537-0.72-2.191-1.897l-5.693-12.923l-5.43,12.727
			c-0.589,1.374-1.145,2.159-2.323,2.159c-1.145,0-1.734-0.785-2.257-2.225l-6.347-17.83c-0.981-2.943,3.173-4.023,4.024-1.439
			l4.842,13.479l5.791-13.479c0.785-1.995,2.846-2.094,3.697-0.098L55.46,117.563z"/>
		<path fill="#FFFFFF" d="M69.421,123.354v-18.582c0-1.178,0.852-2.028,2.323-2.028c1.146,0,1.995,0.851,1.995,2.028v7.132h10.666
			v-7.132c0-1.178,1.047-2.028,2.225-2.028c1.145,0,2.027,0.851,2.027,2.028v18.582c0,1.146-0.883,2.028-2.027,2.028
			c-1.178,0-2.225-0.883-2.225-2.028v-7.165H73.739v7.165c0,1.146-0.85,2.028-1.995,2.028
			C70.272,125.382,69.421,124.499,69.421,123.354z"/>
		<path fill="#FFFFFF" d="M94.737,125.382c-1.047-0.589-1.701-1.767-1.047-3.141l9.389-18.353c0.884-1.734,3.239-1.8,4.057,0
			l9.227,18.353c1.341,2.552-2.617,4.58-3.795,2.028l-1.439-2.879H99.056l-1.406,2.879C97.126,125.382,95.915,125.61,94.737,125.382
			z M108.805,117.072l-3.696-8.08l-4.024,8.08H108.805z"/>
		<path fill="#FFFFFF" d="M121.329,104.706c0-1.079,0.916-1.995,2.061-1.995c1.047,0,1.931,0.916,1.931,1.995v16.391h8.898
			c3.206,0,3.271,4.285,0,4.285H123.39c-1.145,0-2.061-0.818-2.061-1.996V104.706z"/>
		<path fill="#FFFFFF" d="M143.997,125.382c-1.146,0-2.029-0.883-2.029-2.028v-18.582c0-1.178,0.884-2.028,2.029-2.028h11.744
			c3.01,0,2.944,4.253,0,4.253h-9.422v4.907h8.244c2.912,0,2.912,4.285,0,4.285h-8.244v4.908h9.979c2.977,0,3.205,4.285,0,4.285
			H143.997z"/>
	</g>
</g>
</svg>
